<?xml version="1.0" encoding="UTF-8" standalone="no"?>
<svg xmlns="http://www.w3.org/2000/svg" xmlns:svg="http://www.w3.org/2000/svg" width="500" height="188">
  <style>
    .primary-color {
      fill: #b3ffda;
    }
    .grey-color {
      fill: #737373;
    }
  </style>
  <g fill="none" fill-rule="evenodd">
    <path class="primary-color" d="m19.16797 172.07092l0 -155.84025l-19.16797 0l0 -16.08575l53.96094 0l0 16.08575l-19.16797 0l0 155.84025l-15.625 0"/>
    <path class="primary-color" d="m101.87891 172.07092l0 -79.59059l-22.08594 0l0 79.59059l-15.83594 0l0 -171.926l15.83594 0l0 76.66875l22.08594 0l0 -76.66875l15.83203 0l0 171.926l-15.83203 0"/>
    <path class="primary-color" d="m133.125 172.07092l0 -171.926l45.41797 0l0 16.08575l-29.58594 0l0 60.3715l20.83594 0l0 15.87816l-20.83594 0l0 63.92392l30.62891 0l0 15.66667l-46.46094 0"/>
    <path class="primary-color" d="m219.79297 172.07092l0 -171.926l46.46094 0l0 16.08575l-30.62891 0l0 61.20966l21.04297 0l0 15.87425l-21.04297 0l0 78.75634l-15.83203 0"/>
    <path class="primary-color" d="m307.08594 128.61942c-3.54297 -29.5 -7.3 -58.3 -10.6 -88.15633c-3.54297 29.9 -7.3 58.7 -11.3 88.15633l21.87891 0l0 0zm5.625 43.45151l-3.75 -28.82668l-25.62891 0l-3.75 28.82668l-15.41406 0l23.54297 -171.926l18.53906 0l22.29297 171.926l-15.83203 0l0 0z"/>
    <path class="primary-color" d="m376.87891 33.15067c0 -12.3 -2.7 -16.9 -13.8 -16.92l-10.21094 0l0 63.50483l10.41797 0c9.79297 0 13.5 -4.4 13.5 -14.20575l0 -32.37908l0 0zm0.41797 138.92025c-3.54297 -26.5 -7.3 -52 -12.1 -78.12967c-1.45703 0.2 -2.3 0.2 -3.8 0.21149l-8.54297 0l0 77.91817l-15.83203 0l0 -171.926l26.04297 0c20 0 29.8 8.4 29.8 30.91816l0 34.25909c0 12.5 -4.2 20.9 -12.7 25.27816c5.62891 27.4 10.2 54.7 14.4 81.4706l-17.29297 0l0 0z"/>
    <path class="primary-color" d="m470.21484 172.07092l0 -52.01725c0 -25.1 0.2 -49.3 0.4 -74.36967l-18.54297 126.38692l-13.96094 0l-18.33203 -126.38692c0.20703 25.1 0.4 49.3 0.4 74.36967l0 52.01725l-14.58203 0l0 -171.926l21.25 0l18.125 134.326l18.12891 -134.326l21.875 0l0 171.926l-14.79297 0"/>
    <path class="grey-color" d="m94.67578 76.82542l0 -60.75534l-14.88281 -15.91341l0 76.66875l14.88281 0"/>
    <path class="grey-color" d="m19.16797 16.24242l-19.16797 0l14.88281 15.91733l4.28516 0l0 -15.9"/>
    <path class="grey-color" d="m101.87891 92.49208l-22.08594 0l0 79.59059l-15.83594 0l14.88281 15.91733l15.83594 0l0 -79.5945l7.20313 0l0 -15.9"/>
    <path class="grey-color" d="m63.95703 10.84917l-9.99609 -10.6925l0 16.08575l-19.16797 0l0 155.84025l-15.625 0l14.88281 15.91733l15.625 0l0 -155.84025l14.28125 0l0 -21.3"/>
    <path class="grey-color" d="m117.71094 0.15667l0 171.926l-15.83203 0l14.87891 15.91733l15.83594 0l0 -171.92992l-14.88281 -15.9"/>
    <path class="grey-color" d="m148.95703 16.24242l0 60.37149l14.88281 0l0 -44.45415l29.58594 0l0 -16.08967l-14.88281 -15.91341l0 16.08575l-29.58594 0"/>
    <path class="grey-color" d="m179.58594 156.416l0 15.66667l-46.46094 0l14.88281 15.91733l46.46094 0l0 -15.66667l-14.88281 -15.9"/>
    <path class="grey-color" d="m184.67578 92.53125l-14.88281 -15.91734l0 15.87817l-20.83594 0l0 63.92392l14.83984 0l0.04297 -48.0105l20.83594 0l0 -15.9"/>
    <path class="grey-color" d="m256.66797 93.32633l-21.04297 0l0 78.75634l-15.83203 0l14.87891 15.91733l15.83594 0l0 -78.75633l21.04297 0l0 -15.87817l-14.88281 -15.91342l0 15.9"/>
    <path class="grey-color" d="m266.25391 0.15667l0 16.08575l-30.62891 0l0 61.20966l14.83594 0l0.04688 -45.29233l30.625 0l0 -16.08967l-14.87891 -15.9"/>
    <path class="grey-color" d="m451.21484 86.11967l-9.45313 -70.04959l-14.88281 -15.91341l18.125 134.326l6.21094 -48.4"/>
    <path class="grey-color" d="m363.12891 16.24242l-10.21094 0l0 63.50483l10.41797 0c1.63281 0 3.1 -0.1 4.4 -0.37992l0.07422 -46.83158c6.70313 1.2 8.8 5.6 9.1 14.60133l0 -13.97466c0 -12.3 -2.7 -16.9 -13.8 -16.9"/>
    <path class="grey-color" d="m485.00781 0.15667l0 171.926l-14.79297 0l14.88281 15.91733l14.79297 0l0 -171.92992l-14.88281 -15.9"/>
    <path class="grey-color" d="m470.21484 120.06541c0 -25.1 0.2 -49.3 0.4 -74.36966l-18.54297 126.38692l-13.96094 0l14.88281 15.91733l13.95703 0l3.24609 -22.11742l0 -45.8"/>
    <path class="grey-color" d="m285.20703 128.63116l17.00781 0c2.54297 -19.1 0.9 -6.9 2.5 -19.08591c-2.82031 -22.9 -5.7 -45.7 -8.3 -69.07042c-3.54297 29.9 -7.3 58.7 -11.3 88.2"/>
    <path class="grey-color" d="m361.46094 94.1645l-8.54297 0l0 77.91817l-15.83203 0l0 -32.994l-15.95313 -123.01859l-14.88281 -15.91341l22.29297 171.926l-15.83203 0l14.88281 15.91733l15.83203 0l-1.375 -10.60242l9.91406 10.60242l15.83594 0l0 -79.4065c-0.95313 -5.6 -1.5 -8.9 -2.6 -14.6405c-1.45703 0.2 -2.3 0.2 -3.8 0.2"/>
    <path class="grey-color" d="m283.33203 143.256l-3.75 28.82668l-15.41406 0l14.87891 15.91733l15.41797 0l3.75 -28.82666l12.81641 0l-2.07031 -15.91734l-25.62891 0"/>
    <path class="grey-color" d="m420.21094 120.06541l0 52.01727l-14.58203 0l0 -8.04092c-3.14453 -19 -6.6 -38.3 -10.5 -57.51233c5 -2.6 8.5 -6.5 10.5 -11.84009l0 -60.43808c-3.51172 -10.5 -10.9 -20.4 -19.7 -26.71558c4.69922 4.9 7 12.5 7 23.53916l0 34.25909c0 12.5 -4.2 20.9 -12.7 25.27816c5.62891 27.4 10.2 54.7 14.4 81.47059l-17.29297 0l14.87891 15.91733l17.29297 0c-0.73438 -4.7 -1.5 -9.5 -2.3 -14.2175l13.29297 14.2175l14.58594 0l0 -36.84801l-15.29688 -105.45624c0.20703 25.1 0.4 49.3 0.4 74.4"/>
  </g>
</svg>
